<svg version="1.1" xmlns="http://www.w3.org/2000/svg" viewBox="-2386.944052124023 -1468.416064453125 7264.256494140624 2402.304052734375"><desc>Created with Snap</desc><defs></defs><g><rect x="-2386.944052124023" y="-1468.416064453125" width="7264.256494140624" height="2402.304052734375" fill="#000000" style=""></rect><g transform="matrix(55.872,0,0,55.872,-2079.7441,-1161.2161)"><g display="none"><rect x="-69.333" y="-18.667" display="inline" fill="#e0aaff" width="473.333" height="236" style=""></rect></g><g display="none"><g display="inline"><g><polygon fill="#e0aaff" points="32,15.976 15.976,32 0,16.024    " style=""></polygon></g><g><polygon points="23.347,15.989 15.989,23.347 8.653,16.011    " fill="#e0aaff" style=""></polygon></g><g><polygon fill="#e0aaff" points="0,16.024 16.024,0 32,15.976    " style=""></polygon></g><g><polygon fill="#e0aaff" points="8.653,16.011 16.011,8.653 23.347,15.989    " style=""></polygon></g></g></g><g display="none"><g display="inline"><path fill="#e0aaff" d="M16,1c8.271,0,15,6.729,15,15s-6.729,15-15,15S1,24.271,1,16S7.729,1,16,1 M16,0C7.163,0,0,7.163,0,16    s7.163,16,16,16s16-7.163,16-16S24.837,0,16,0L16,0z" style=""></path></g><g display="inline"><path fill="#e0aaff" d="M13.034,6.153l2.259,2.259L16,9.119l0.707-0.707l2.259-2.259l0.744,0.744l-2.259,2.259l-0.707,0.707    l0.707,0.707l2.259,2.259l-0.744,0.744l-2.259-2.259L16,10.607l-0.707,0.707l-2.259,2.259l-0.744-0.744l2.259-2.259l0.707-0.707    l-0.707-0.707L12.29,6.897L13.034,6.153 M18.966,4.738L16,7.705l-2.966-2.966l-2.158,2.158l2.966,2.966l-2.966,2.966l2.158,2.158    L16,12.021l2.966,2.966l2.158-2.158l-2.966-2.966l2.966-2.966L18.966,4.738L18.966,4.738z" style=""></path></g><g display="inline"><path fill="#e0aaff" d="M13.034,18.427l2.259,2.259L16,21.393l0.707-0.707l2.259-2.259l0.744,0.744l-2.259,2.259l-0.707,0.707    l0.707,0.707l2.259,2.259l-0.744,0.744l-2.259-2.259L16,22.881l-0.707,0.707l-2.259,2.259l-0.744-0.744l2.259-2.259l0.707-0.707    l-0.707-0.707l-2.259-2.259L13.034,18.427 M18.966,17.013L16,19.979l-2.966-2.966l-2.158,2.158l2.966,2.966l-2.966,2.966    l2.158,2.158L16,24.295l2.966,2.966l2.158-2.158l-2.966-2.966l2.966-2.966L18.966,17.013L18.966,17.013z" style=""></path></g></g><g display="none"><g display="inline"><rect x="2" y="2" fill="#e0aaff" width="28" height="28" style=""></rect></g><g display="inline"><g><path fill="#e0aaff" d="M16,31.5C7.453,31.5,0.5,24.547,0.5,16S7.453,0.5,16,0.5S31.5,7.453,31.5,16S24.547,31.5,16,31.5z" style=""></path></g><g><g><path d="M16,1c8.271,0,15,6.729,15,15s-6.729,15-15,15S1,24.271,1,16S7.729,1,16,1 M16,0C7.163,0,0,7.163,0,16s7.163,16,16,16      s16-7.163,16-16S24.837,0,16,0L16,0z" fill="#e0aaff" style=""></path></g></g></g><g display="inline"><g><polygon fill="#e0aaff" points="16,11.314 13.034,14.28 11.582,12.829 14.549,9.863 11.582,6.896 13.034,5.445 16,8.412      18.966,5.445 20.418,6.896 17.451,9.863 20.418,12.829 18.966,14.28    " style=""></polygon></g><g><path d="M13.034,6.153l2.259,2.259L16,9.119l0.707-0.707l2.259-2.259l0.744,0.744l-2.259,2.259l-0.707,0.707l0.707,0.707     l2.259,2.259l-0.744,0.744l-2.259-2.259L16,10.607l-0.707,0.707l-2.259,2.259l-0.744-0.744l2.259-2.259l0.707-0.707l-0.707-0.707     L12.29,6.897L13.034,6.153 M18.966,4.738L16,7.705l-2.966-2.966l-2.158,2.158l2.966,2.966l-2.966,2.966l2.158,2.158L16,12.021     l2.966,2.966l2.158-2.158l-2.966-2.966l2.966-2.966L18.966,4.738L18.966,4.738z" fill="#e0aaff" style=""></path></g></g><g display="inline"><g><polygon fill="#e0aaff" points="16,23.589 13.034,26.555 11.582,25.104 14.549,22.137 11.582,19.171 13.034,17.72 16,20.686      18.966,17.72 20.418,19.171 17.451,22.137 20.418,25.104 18.966,26.555    " style=""></polygon></g><g><path d="M13.034,18.427l2.259,2.259L16,21.393l0.707-0.707l2.259-2.259l0.744,0.744l-2.259,2.259l-0.707,0.707l0.707,0.707     l2.259,2.259l-0.744,0.744l-2.259-2.259L16,22.881l-0.707,0.707l-2.259,2.259l-0.744-0.744l2.259-2.259l0.707-0.707l-0.707-0.707     l-2.259-2.259L13.034,18.427 M18.966,17.013L16,19.979l-2.966-2.966l-2.158,2.158l2.966,2.966l-2.966,2.966l2.158,2.158     L16,24.295l2.966,2.966l2.158-2.158l-2.966-2.966l2.966-2.966L18.966,17.013L18.966,17.013z" fill="#e0aaff" style=""></path></g></g></g><g><g><path d="M0,16.024L15.976,32L32,15.976L16.024,0L0,16.024z M15.989,23.347l-7.336-7.336l14.694-0.022L15.989,23.347z" fill="#e0aaff" style=""></path></g></g><desc>Created with Snap</desc><defs></defs></g><g><g transform="matrix(1.024,0,0,-1.024,0,0)"><path d="M266 -10Q159 -10 87 77Q15 164 15 317Q15 470 92 559Q169 648 274 648Q328 648 370 625Q412 603 412 562Q412 543 402 531Q392 519 371 519Q350 519 331 536Q313 553 313 567Q313 582 318 592Q300 600 275 600Q192 600 132 520Q73 440 73 323Q73 253 95 189Q118 125 163 82Q209 40 274 40Q339 40 374 92Q409 145 409 210L409 269L290 269Q267 269 267 295Q267 321 290 321L518 321Q539 321 539 295Q539 269 518 269L466 269L466 215Q466 139 498 101Q518 81 518 68Q518 55 508 46Q499 38 488 38Q461 38 435 92Q418 50 374 20Q330 -10 266 -10ZM874 332Q870 372 838 409Q806 446 758 446Q711 446 680 411Q649 376 637 332L874 332ZM769 -10Q678 -10 623 61Q568 132 568 242Q568 352 620 421Q673 490 759 490Q803 490 838 470Q873 451 892 422Q932 363 932 310Q932 282 906 282L626 282Q624 269 624 245Q624 153 665 94Q707 35 769 35Q796 35 818 49Q840 64 849 77Q858 91 869 114Q881 137 901 137Q931 137 931 110Q931 75 886 32Q842 -10 769 -10ZM947 241Q947 349 1008 418Q1070 488 1174 488Q1279 488 1340 419Q1402 350 1402 242Q1402 135 1341 64Q1280 -6 1173 -6Q1067 -6 1007 64Q947 134 947 241ZM1052 99Q1101 41 1174 41Q1247 41 1296 98Q1346 156 1346 241Q1346 326 1296 383Q1246 441 1174 441Q1102 441 1052 384Q1003 327 1003 242Q1003 157 1052 99ZM1677 435L1545 435L1545 52L1564 52Q1576 52 1582 44Q1589 37 1589 26Q1589 0 1564 0L1469 0Q1443 0 1443 26Q1443 52 1469 52L1489 52L1489 428L1469 428Q1456 428 1449 436Q1442 444 1442 454Q1442 465 1449 472Q1456 480 1469 480L1654 480Q1705 480 1731 458Q1757 437 1757 404Q1757 387 1749 373Q1741 360 1723 360Q1705 360 1690 376Q1676 393 1675 411Q1675 430 1677 435ZM1987 0Q1989 -33 2008 -53Q2028 -72 2056 -72Q2084 -72 2096 -60Q2109 -48 2109 -30Q2109 4 2052 4Q2019 4 1987 0ZM2002 155Q2070 155 2115 196Q2160 238 2160 300Q2160 362 2107 405Q2055 448 1989 448Q1924 448 1876 407Q1829 367 1829 303Q1829 240 1882 198Q1935 156 2002 155ZM2212 299Q2212 219 2149 165Q2087 112 1996 112Q1960 112 1927 122L1888 52L2062 52Q2113 52 2135 28Q2158 5 2158 -29Q2158 -62 2128 -88Q2098 -113 2050 -113Q2003 -113 1963 -78Q1923 -43 1921 0L1846 0Q1814 0 1814 22Q1814 29 1819 37L1880 140Q1835 162 1806 207Q1777 252 1777 305Q1777 383 1840 436Q1903 490 1994 490Q2036 490 2069 480L2106 540Q2135 588 2177 588Q2205 588 2224 567Q2244 546 2244 526Q2244 507 2235 497Q2226 488 2210 488Q2195 488 2178 503Q2161 518 2157 540L2109 463Q2156 436 2184 393Q2212 351 2212 299ZM2570 332Q2566 372 2534 409Q2502 446 2454 446Q2407 446 2376 411Q2345 376 2333 332L2570 332ZM2465 -10Q2374 -10 2319 61Q2264 132 2264 242Q2264 352 2316 421Q2369 490 2455 490Q2499 490 2534 470Q2569 451 2588 422Q2628 363 2628 310Q2628 282 2602 282L2322 282Q2320 269 2320 245Q2320 153 2361 94Q2403 35 2465 35Q2492 35 2514 49Q2536 64 2545 77Q2554 91 2565 114Q2577 137 2597 137Q2627 137 2627 110Q2627 75 2582 32Q2538 -10 2465 -10ZM2638 143Q2638 177 2656 198Q2674 220 2692 220Q2711 220 2721 207Q2732 194 2732 176Q2732 139 2705 117Q2716 74 2750 53Q2785 33 2827 33Q2889 33 2925 75Q2962 117 2962 169Q2962 222 2922 260Q2892 287 2845 318L2794 351Q2739 386 2710 423Q2681 461 2681 516Q2681 572 2723 610Q2765 649 2822 649Q2880 649 2919 623Q2958 597 2958 560Q2958 542 2947 531Q2937 521 2917 521Q2897 521 2878 538Q2860 555 2860 569Q2860 583 2863 592Q2854 609 2821 609Q2788 609 2762 583Q2737 557 2737 525Q2737 473 2831 411L2882 377Q2915 354 2931 341Q2948 329 2973 303Q3021 253 3021 171Q3021 89 2964 39Q2907 -11 2829 -11Q2751 -11 2694 36Q2638 84 2638 143ZM3117 52L3117 586L3078 586Q3056 586 3056 612Q3056 638 3078 638L3151 638Q3164 638 3168 633Q3173 629 3173 616L3173 392Q3191 428 3231 457Q3271 486 3328 486Q3386 486 3417 441Q3448 397 3448 338L3448 52L3477 52Q3488 52 3494 44Q3500 36 3500 26Q3500 16 3494 8Q3488 0 3477 0L3367 0Q3341 0 3341 26Q3341 52 3367 52L3392 52L3392 341Q3392 377 3375 408Q3358 439 3317 439Q3262 439 3217 382Q3173 325 3173 262L3173 52L3202 52Q3213 52 3220 44Q3227 36 3227 26Q3227 16 3220 8Q3213 0 3202 0L3086 0Q3062 0 3062 26Q3062 52 3086 52L3117 52ZM3535 241Q3535 349 3596 418Q3658 488 3762 488Q3867 488 3928 419Q3990 350 3990 242Q3990 135 3929 64Q3868 -6 3761 -6Q3655 -6 3595 64Q3535 134 3535 241ZM3640 99Q3689 41 3762 41Q3835 41 3884 98Q3934 156 3934 241Q3934 326 3884 383Q3834 441 3762 441Q3690 441 3640 384Q3591 327 3591 242Q3591 157 3640 99ZM4057 -75L4088 -75L4088 428L4051 428Q4042 428 4036 436Q4030 444 4030 454Q4030 464 4036 472Q4042 480 4051 480L4125 480Q4137 480 4140 476Q4143 473 4143 462L4143 401Q4164 437 4202 459Q4240 482 4283 482Q4367 482 4415 415Q4463 349 4463 242Q4463 136 4414 67Q4366 -2 4281 -2Q4238 -2 4200 19Q4162 41 4144 73L4144 -75L4174 -75Q4185 -75 4192 -82Q4199 -89 4199 -100Q4199 -127 4174 -127L4057 -127Q4033 -127 4033 -100Q4033 -89 4040 -82Q4047 -75 4057 -75ZM4407 257Q4407 319 4376 378Q4345 437 4279 437Q4213 437 4176 385Q4140 333 4140 242Q4140 152 4176 97Q4213 43 4279 43Q4327 43 4357 77Q4387 111 4397 153Q4407 195 4407 257Z" fill="#ffffff" style=""></path></g></g></g></svg>